<svg width="32" height="24" viewBox="0 0 32 24" fill="none" xmlns="http://www.w3.org/2000/svg">
<path d="M2.78242 14.3144C3.17615 14.6297 3.61123 14.8604 4.07688 14.9973C4.52815 15.1324 4.95425 15.1991 5.34259 15.1991H15.9842H18.6666H26.1386C26.4388 15.1991 26.7607 15.1631 27.0951 15.0928C27.4313 15.0225 27.7657 14.9108 28.0911 14.7613C28.4165 14.6135 28.7347 14.4189 29.0368 14.1865C29.3496 13.945 29.6265 13.6513 29.8566 13.3108C30.0849 12.9738 30.2719 12.581 30.4103 12.145C30.5488 11.7072 30.6189 11.2099 30.6189 10.6693C30.6189 10.1306 30.5506 9.63506 30.4157 9.20082C30.2809 8.76659 30.0939 8.37379 29.8602 8.03505C29.6283 7.6981 29.355 7.40441 29.0529 7.16116C28.7563 6.92512 28.4399 6.72512 28.1109 6.57016C27.7836 6.41521 27.4474 6.29809 27.1148 6.22421C26.7858 6.15034 26.4676 6.1089 26.1584 6.10169H20.3386C19.9773 6.10169 19.713 6.00619 19.526 5.8116C19.3336 5.60979 19.2401 5.32871 19.2401 4.95393C19.2401 4.58275 19.3354 4.29806 19.5296 4.08545C19.7148 3.88365 19.9791 3.78635 20.3368 3.78635H29.3478V0.406128H20.3368C19.8892 0.406128 19.402 0.485408 18.8914 0.643968C18.37 0.80433 17.8792 1.0692 17.4351 1.42956C16.9874 1.79353 16.6099 2.26741 16.315 2.84039C16.0166 3.42058 15.8655 4.1323 15.8655 4.95573C15.8655 5.77916 16.0166 6.49088 16.315 7.07467C16.6099 7.65126 16.9874 8.12694 17.4369 8.4873C17.881 8.84406 18.37 9.10533 18.8914 9.26749C19.402 9.42605 19.8874 9.50533 20.3368 9.50533H26.1368C26.313 9.50533 26.473 9.53416 26.6114 9.59002C26.7445 9.64407 26.8541 9.71795 26.9458 9.81525C27.0411 9.91795 27.1112 10.0351 27.1634 10.1774C27.2173 10.3234 27.2443 10.4909 27.2443 10.6729C27.2443 11.0423 27.1508 11.3216 26.9584 11.527C26.7732 11.7252 26.5036 11.8207 26.1386 11.8207H18.6666H15.9842H5.36057C5.14302 11.8207 4.98661 11.7738 4.89492 11.6837C4.80322 11.5918 4.75828 11.4387 4.75828 11.2279V9.50353H13.7315V6.10349H4.75828V3.78815H14.8659V0.406128H3.08086C2.84534 0.406128 2.62061 0.449371 2.41205 0.535859C2.2035 0.622346 2.02012 0.746673 1.8691 0.903431C1.71807 1.05839 1.59941 1.24037 1.51491 1.44578C1.42862 1.65299 1.38547 1.87461 1.38547 2.10525V11.2243C1.38547 11.9468 1.52031 12.5702 1.78819 13.0801C2.05068 13.5829 2.38509 13.9973 2.78242 14.3144Z" fill="#3A808E"/>
<path d="M30.3852 16.5234H1.61919C1.25243 16.5234 0.953979 16.8225 0.953979 17.1901V23.2154C0.953979 23.583 1.25243 23.8821 1.61919 23.8821H30.3834C30.7501 23.8821 31.0486 23.583 31.0486 23.2154V17.1901C31.0504 16.8225 30.7519 16.5234 30.3852 16.5234ZM30.1514 22.9812H1.85292V17.4243H30.1496V22.9812H30.1514Z" fill="#55A5B5"/>
<path d="M3.07004 21.7415H3.54647C3.58603 21.7415 3.61839 21.7091 3.61839 21.6694V20.6334H3.75503L4.42204 21.7073C4.43462 21.7289 4.458 21.7415 4.48317 21.7415H5.01534C5.05489 21.7415 5.08725 21.7091 5.08725 21.6694C5.08725 21.6532 5.08186 21.6388 5.07287 21.6262L4.41305 20.5577C4.69711 20.4352 4.85713 20.1757 4.85713 19.8298C4.85713 19.3343 4.52991 19.028 4.00493 19.028H3.07183C3.03228 19.028 2.99992 19.0604 2.99992 19.1V21.6694C2.99812 21.7091 3.03048 21.7415 3.07004 21.7415ZM3.61839 20.0496V19.6135H4.00853C4.10741 19.6135 4.23686 19.637 4.23686 19.8316C4.23686 20.0262 4.10561 20.0496 4.00853 20.0496H3.61839Z" fill="#91A9AD"/>
<path d="M5.57274 21.7415H7.19442C7.23397 21.7415 7.26634 21.709 7.26634 21.6694V21.2297C7.26634 21.1901 7.23397 21.1577 7.19442 21.1577H6.11929V20.5937H6.93912C6.97868 20.5937 7.01104 20.5613 7.01104 20.5216V20.0802C7.01104 20.0405 6.97868 20.0081 6.93912 20.0081H6.12109V19.6135H7.15846C7.19802 19.6135 7.23038 19.5811 7.23038 19.5414V19.1018C7.23038 19.0622 7.19802 19.0297 7.15846 19.0297H5.57274C5.53319 19.0297 5.50082 19.0622 5.50082 19.1018V21.6712C5.50082 21.709 5.53319 21.7415 5.57274 21.7415Z" fill="#91A9AD"/>
<path d="M8.9096 21.7721C9.4993 21.7721 9.91101 21.4676 10.0423 20.9397C10.0512 20.9018 10.0279 20.8622 9.99012 20.8532L9.56222 20.7433C9.52627 20.7343 9.49031 20.7523 9.47772 20.7883C9.37345 21.0622 9.19366 21.1901 8.91139 21.1901C8.42777 21.1901 8.25517 20.7757 8.25517 20.3883C8.25517 20.0009 8.42777 19.5865 8.91139 19.5865C9.19366 19.5865 9.37345 19.7144 9.47772 19.9883C9.49031 20.0225 9.52806 20.0424 9.56222 20.0334L9.99012 19.9234C10.0279 19.9144 10.0512 19.8748 10.0423 19.837C9.91281 19.3072 9.4993 19.0045 8.9096 19.0045C8.56261 19.0045 8.24438 19.1306 8.01246 19.3595C7.75896 19.6099 7.62592 19.9667 7.62592 20.3901C7.62592 20.8135 7.75896 21.1685 8.01246 21.4208C8.24259 21.646 8.56261 21.7721 8.9096 21.7721Z" fill="#91A9AD"/>
<path d="M11.7413 21.7721C12.3328 21.7721 13.0214 21.41 13.0214 20.3865C13.0214 19.3631 12.331 19.0009 11.7413 19.0009C11.1498 19.0009 10.4612 19.3631 10.4612 20.3865C10.4612 21.41 11.1498 21.7721 11.7413 21.7721ZM11.2864 19.7703C11.3997 19.6496 11.5579 19.5847 11.7413 19.5847C11.9247 19.5847 12.0811 19.6496 12.1961 19.7703C12.3256 19.909 12.3957 20.1216 12.3957 20.3865C12.3957 20.6514 12.3274 20.864 12.1961 21.0027C12.0829 21.1235 11.9247 21.1883 11.7413 21.1883C11.5579 21.1883 11.4015 21.1235 11.2864 21.0027C11.157 20.864 11.0868 20.6514 11.0868 20.3865C11.0868 20.1216 11.1552 19.909 11.2864 19.7703Z" fill="#91A9AD"/>
<path d="M13.6739 21.7415H14.1504C14.1899 21.7415 14.2223 21.7091 14.2223 21.6694V20.4928L14.5729 21.4604C14.5837 21.4892 14.6106 21.5073 14.6412 21.5073H14.9846C15.0152 21.5073 15.0421 21.4874 15.0529 21.4604L15.4035 20.4928V21.6694C15.4035 21.7091 15.4359 21.7415 15.4754 21.7415H15.9519C15.9914 21.7415 16.0238 21.7091 16.0238 21.6694V19.1C16.0238 19.0604 15.9914 19.028 15.9519 19.028H15.4179C15.3873 19.028 15.3604 19.046 15.3514 19.0748L14.8138 20.5L14.2762 19.0748C14.2654 19.046 14.2385 19.028 14.2097 19.028H13.6757C13.6362 19.028 13.6038 19.0604 13.6038 19.1V21.6694C13.602 21.7091 13.6344 21.7415 13.6739 21.7415Z" fill="#91A9AD"/>
<path d="M16.7394 21.7415H17.2158C17.2554 21.7415 17.2877 21.7091 17.2877 21.6694V20.4928L17.6383 21.4604C17.6491 21.4892 17.6761 21.5073 17.7066 21.5073H18.05C18.0806 21.5073 18.1075 21.4874 18.1183 21.4604L18.4689 20.4928V21.6694C18.4689 21.7091 18.5013 21.7415 18.5408 21.7415H19.0173C19.0568 21.7415 19.0892 21.7091 19.0892 21.6694V19.1C19.0892 19.0604 19.0568 19.028 19.0173 19.028H18.4833C18.4527 19.028 18.4258 19.046 18.4168 19.0748L17.8792 20.5L17.3417 19.0748C17.3309 19.046 17.3039 19.028 17.2751 19.028H16.7412C16.7016 19.028 16.6693 19.0604 16.6693 19.1V21.6694C16.6675 21.7091 16.6998 21.7415 16.7394 21.7415Z" fill="#91A9AD"/>
<path d="M19.7615 21.7415H21.3832C21.4228 21.7415 21.4551 21.709 21.4551 21.6694V21.2297C21.4551 21.1901 21.4228 21.1577 21.3832 21.1577H20.3081V20.5937H21.1261C21.1657 20.5937 21.198 20.5613 21.198 20.5216V20.0802C21.198 20.0405 21.1657 20.0081 21.1261 20.0081H20.3081V19.6135H21.3455C21.385 19.6135 21.4174 19.5811 21.4174 19.5414V19.1018C21.4174 19.0622 21.385 19.0297 21.3455 19.0297H19.7598C19.7202 19.0297 19.6878 19.0622 19.6878 19.1018V21.6712C19.6896 21.709 19.722 21.7415 19.7615 21.7415Z" fill="#91A9AD"/>
<path d="M22.0394 21.7415H22.5159C22.5554 21.7415 22.5878 21.7091 22.5878 21.6694V20.2514L23.395 21.7037C23.4076 21.7271 23.431 21.7415 23.458 21.7415H23.9596C23.9991 21.7415 24.0315 21.7091 24.0315 21.6694V19.1C24.0315 19.0604 23.9991 19.028 23.9596 19.028H23.4831C23.4436 19.028 23.4112 19.0604 23.4112 19.1V20.5181L22.604 19.0658C22.5914 19.0424 22.568 19.028 22.5411 19.028H22.0394C21.9999 19.028 21.9675 19.0604 21.9675 19.1V21.6694C21.9675 21.7091 21.9999 21.7415 22.0394 21.7415Z" fill="#91A9AD"/>
<path d="M24.7022 21.7415H25.504C25.8438 21.7415 26.153 21.6262 26.376 21.4172C26.6331 21.1757 26.7697 20.819 26.7697 20.3847C26.7697 19.9505 26.6331 19.5937 26.376 19.3523C26.153 19.1433 25.842 19.028 25.504 19.028H24.7022C24.6626 19.028 24.6302 19.0604 24.6302 19.1V21.6694C24.6302 21.7091 24.6626 21.7415 24.7022 21.7415ZM25.3548 19.6135C25.878 19.6135 26.1441 19.873 26.1441 20.3865C26.1441 20.9 25.878 21.1595 25.3548 21.1595H25.2505V19.6153H25.3548V19.6135Z" fill="#91A9AD"/>
<path d="M28.0875 21.7721C28.6305 21.7721 28.9793 21.4298 28.9793 20.9001C28.9793 20.4226 28.5927 20.237 28.2817 20.0874C28.0336 19.9685 27.8826 19.8856 27.8826 19.7469C27.8826 19.6532 27.9563 19.5847 28.0552 19.5847C28.1433 19.5847 28.2403 19.6136 28.3464 19.8172C28.3554 19.8352 28.3716 19.8478 28.3914 19.8532C28.4111 19.8586 28.4309 19.855 28.4489 19.8442L28.8336 19.5992C28.8642 19.5793 28.875 19.5397 28.8606 19.5073C28.7078 19.1793 28.4219 18.9991 28.0552 18.9991C27.843 18.9991 27.647 19.0784 27.5032 19.2226C27.3612 19.3649 27.2839 19.5595 27.2839 19.7685C27.2839 20.2874 27.6758 20.4712 27.9904 20.619C28.2188 20.7253 28.3572 20.7974 28.3572 20.9235C28.3572 21.1001 28.2709 21.1848 28.0965 21.1848C27.8412 21.1848 27.7172 20.9307 27.656 20.7163C27.6506 20.6947 27.6345 20.6766 27.6129 20.6676C27.5913 20.6586 27.5679 20.6622 27.5482 20.673L27.1634 20.9145C27.1382 20.9307 27.1257 20.9613 27.1311 20.9902C27.2281 21.4514 27.6201 21.7721 28.0875 21.7721Z" fill="#91A9AD"/>
</svg>
